# xmcd
#
# Track frame offsets:
#	150
#	669
#	3485
#	5586
#	26354
#	44926
#	71444
#	88233
#	108678
#	129233
#	143928
#	167884
#	186950
#
# Disc length: 2785 seconds
#
# Revision: 2
# Processed by: cddbd v1.5.1PL0 Copyright (c) Steve Scherf et al.
# Submitted via: audiograbber 1.83.01
#
DISCID=b10adf0d
DTITLE=sdfa - sdfasf
DYEAR=1900
DGENRE=
TTITLE0=Data Track
TTITLE1=Data Track
TTITLE2=Data Track
TTITLE3=Data Track
TTITLE4=Data Track
TTITLE5=Data Track
TTITLE6=Data Track
TTITLE7=Data Track
TTITLE8=Data Track
TTITLE9=Data Track
TTITLE10=Data Track
TTITLE11=Data Track
TTITLE12=Data Track
EXTD=
EXTT0=
EXTT1=
EXTT2=
EXTT3=
EXTT4=
EXTT5=
EXTT6=
EXTT7=
EXTT8=
EXTT9=
EXTT10=
EXTT11=
EXTT12=
PLAYORDER=
